# xmcd
#
# Track frame offsets:
#	150
#	29293
#	46954
#	60863
#	81086
#	95533
#	114547
#	134172
#	150775
#	163620
#	178044
#	196875
#	215883
#	229632
#	242980
#	257448
#	273917
#	293043
#	309751
#	323447
#	343111
#
# Disc length: 4778 seconds
#
# Revision: 0
# Processed by: cddbd v1.5.2PL0 Copyright (c) Steve Scherf et al.
# Submitted via: EasyCDDAExtractor 16.0.6.1
#
DISCID=1b12a815
DTITLE=Ο Άγιος Ερωτόκριτος-Ν. Μαμαγκάκης
DYEAR=2006
DGENRE=Έντεχνη
TTITLE0=Ιδομενέως Γιάννης - Ποιητής
TTITLE1=Μαμαγκάκης Νίκος - Εισαγωγή
TTITLE2=Ιδομενέως Γιάννης - Ονείρατα
TTITLE3=Τζουγανάκης Μιχάλης - Κρήτη
TTITLE4=Τζουγανάκης Μιχάλης - Αγνή
TTITLE5=Δάρρα Φωτεινή - Αγάπη
TTITLE6=Δάρρα Φωτεινή - Πάνω στον τοίχο
TTITLE7=Ιδομενέως Γιάννης - Σκύφτει
TTITLE8=Ιδομενέως Γιάννης - Πόνο στον πόνο
TTITLE9=Παπαϊωάννου Παναγιώτης - Οψές
TTITLE10=Παπαϊωάννου Παναγιώτης - Δίπυργο
TTITLE11=Τζουγανάκης Μιχάλης-Ιδομενέως Γιάννης - Λευτεριά
TTITLE12=Μαμαγκάκης Νίκος - Presto
TTITLE13=Τζουγανάκης Μιχάλης - Άντρας
TTITLE14=Ιδομενέως Γιάννης - Γραφή
TTITLE15=Δάρρα Φωτεινή - Στα ξένα
TTITLE16=Ιδομενέως Γιάννης - Τ' απόσκια
TTITLE17=Δάρρα Φωτεινή - Οι δαίμονες
TTITLE18=Ιδομενέως Γιάννης - Η φυλακή
TTITLE19=Δάρρα Φωτεινή - Της Αρετούσας
TTITLE20=Μαμαγκάκης Νίκος - Finale
EXTD=
EXTT0=
EXTT1=
EXTT2=
EXTT3=
EXTT4=
EXTT5=
EXTT6=
EXTT7=
EXTT8=
EXTT9=
EXTT10=
EXTT11=
EXTT12=
EXTT13=
EXTT14=
EXTT15=
EXTT16=
EXTT17=
EXTT18=
EXTT19=
EXTT20=
PLAYORDER=
